<svg width="25" height="24" viewBox="0 0 25 24" fill="none" xmlns="http://www.w3.org/2000/svg">
<path d="M9.50006 22H15.5001C20.5001 22 22.5001 20 22.5001 15V9C22.5001 4 20.5001 2 15.5001 2H9.50006C4.50006 2 2.50006 4 2.50006 9V15C2.50006 20 4.50006 22 9.50006 22Z" stroke="#878787" stroke-width="1.5" stroke-linecap="round" stroke-linejoin="round"/>
<path d="M17.5001 2.44V12.42C17.5001 14.39 16.0901 15.16 14.3601 14.12L13.0401 13.33C12.7401 13.15 12.2601 13.15 11.9601 13.33L10.6401 14.12C8.91006 15.15 7.50006 14.39 7.50006 12.42V2.44" stroke="#878787" stroke-width="1.5" stroke-linecap="round" stroke-linejoin="round"/>
<path d="M9.50006 22H15.5001C20.5001 22 22.5001 20 22.5001 15V9C22.5001 4 20.5001 2 15.5001 2H9.50006C4.50006 2 2.50006 4 2.50006 9V15C2.50006 20 4.50006 22 9.50006 22Z" stroke="#878787" stroke-width="1.5" stroke-linecap="round" stroke-linejoin="round"/>
<path d="M17.5001 2.44V12.42C17.5001 14.39 16.0901 15.16 14.3601 14.12L13.0401 13.33C12.7401 13.15 12.2601 13.15 11.9601 13.33L10.6401 14.12C8.91006 15.15 7.50006 14.39 7.50006 12.42V2.44" stroke="#878787" stroke-width="1.5" stroke-linecap="round" stroke-linejoin="round"/>
</svg>
