<svg width="32" height="32" viewBox="0 0 32 32" fill="none" xmlns="http://www.w3.org/2000/svg">
<rect width="32" height="32" rx="16" fill="white"/>
<path fill-rule="evenodd" clip-rule="evenodd" d="M19.2082 8.08392C19.734 8.08392 20.259 8.15809 20.7582 8.32559C23.834 9.32559 24.9424 12.7006 24.0165 15.6506C23.4915 17.1581 22.6332 18.5339 21.509 19.6581C19.8999 21.2164 18.134 22.5998 16.2332 23.7914L16.0249 23.9173L15.8082 23.7831C13.9007 22.5998 12.1249 21.2164 10.5007 19.6498C9.38402 18.5256 8.52485 17.1581 7.99152 15.6506C7.04985 12.7006 8.15818 9.32559 11.2674 8.30809C11.509 8.22475 11.7582 8.16642 12.0082 8.13392H12.1082C12.3424 8.09975 12.5749 8.08392 12.8082 8.08392H12.8999C13.4249 8.09975 13.9332 8.19142 14.4257 8.35892H14.4749C14.5082 8.37475 14.5332 8.39225 14.5499 8.40809C14.734 8.46725 14.9082 8.53392 15.0749 8.62559L15.3915 8.76725C15.468 8.80806 15.5539 8.87042 15.6281 8.92431C15.6752 8.95846 15.7175 8.9892 15.7499 9.00892C15.7635 9.01694 15.7773 9.02501 15.7912 9.03315C15.8627 9.07486 15.9371 9.1183 15.9999 9.16642C16.9257 8.45892 18.0499 8.07559 19.2082 8.08392ZM21.4249 14.0839C21.7665 14.0748 22.0582 13.8006 22.0832 13.4498V13.3506C22.1082 12.1831 21.4007 11.1256 20.3249 10.7173C19.9832 10.5998 19.6082 10.7839 19.4832 11.1339C19.3665 11.4839 19.5499 11.8673 19.8999 11.9914C20.434 12.1914 20.7915 12.7173 20.7915 13.2998V13.3256C20.7757 13.5164 20.8332 13.7006 20.9499 13.8423C21.0665 13.9839 21.2415 14.0664 21.4249 14.0839Z" fill="#E74C3C"/>
</svg>
