<svg width="28" height="28" viewBox="0 0 28 28" fill="none" xmlns="http://www.w3.org/2000/svg">
<rect width="28" height="28" rx="8" fill="#4C4DDC"/>
<path d="M21.75 10.3167H17.1C16.775 10.3167 16.5167 10.0583 16.5167 9.73334C16.5167 9.40834 16.775 9.15 17.1 9.15H21.75C22.075 9.15 22.3333 9.40834 22.3333 9.73334C22.3333 10.0583 22.075 10.3167 21.75 10.3167Z" fill="white"/>
<path d="M9.34999 10.3167H6.24999C5.92499 10.3167 5.66666 10.0583 5.66666 9.73334C5.66666 9.40834 5.92499 9.15 6.24999 9.15H9.34999C9.67499 9.15 9.93332 9.40834 9.93332 9.73334C9.93332 10.0583 9.66666 10.3167 9.34999 10.3167Z" fill="white"/>
<path d="M12.45 13.025C14.2679 13.025 15.7417 11.5513 15.7417 9.73333C15.7417 7.9154 14.2679 6.44167 12.45 6.44167C10.6321 6.44167 9.15833 7.9154 9.15833 9.73333C9.15833 11.5513 10.6321 13.025 12.45 13.025Z" fill="white"/>
<path d="M21.75 18.8417H18.65C18.325 18.8417 18.0667 18.5833 18.0667 18.2583C18.0667 17.9333 18.325 17.675 18.65 17.675H21.75C22.075 17.675 22.3333 17.9333 22.3333 18.2583C22.3333 18.5833 22.075 18.8417 21.75 18.8417Z" fill="white"/>
<path d="M10.9 18.8417H6.24999C5.92499 18.8417 5.66666 18.5833 5.66666 18.2583C5.66666 17.9333 5.92499 17.675 6.24999 17.675H10.9C11.225 17.675 11.4833 17.9333 11.4833 18.2583C11.4833 18.5833 11.2167 18.8417 10.9 18.8417Z" fill="white"/>
<path d="M15.55 21.5583C17.3679 21.5583 18.8417 20.0846 18.8417 18.2667C18.8417 16.4487 17.3679 14.975 15.55 14.975C13.7321 14.975 12.2583 16.4487 12.2583 18.2667C12.2583 20.0846 13.7321 21.5583 15.55 21.5583Z" fill="white"/>
</svg>
