<svg width="20" height="21" viewBox="0 0 20 21" fill="none" xmlns="http://www.w3.org/2000/svg">
<path d="M17.1834 7.54167C16.3084 3.69167 12.95 1.95833 10 1.95833C10 1.95833 10 1.95833 9.99168 1.95833C7.05002 1.95833 3.68335 3.68333 2.80835 7.53333C1.83335 11.8333 4.46669 15.475 6.85002 17.7667C7.73335 18.6167 8.86668 19.0417 10 19.0417C11.1334 19.0417 12.2667 18.6167 13.1417 17.7667C15.525 15.475 18.1584 11.8417 17.1834 7.54167ZM10 11.7167C8.55002 11.7167 7.37502 10.5417 7.37502 9.09167C7.37502 7.64167 8.55002 6.46667 10 6.46667C11.45 6.46667 12.625 7.64167 12.625 9.09167C12.625 10.5417 11.45 11.7167 10 11.7167Z" fill="#4C4DDC"/>
</svg>
