<svg width="40" height="40" viewBox="0 0 40 40" fill="none" xmlns="http://www.w3.org/2000/svg">
<g clip-path="url(#clip0_502_2540)">
<path d="M27.34 22.49L26.34 20.83C26.13 20.46 25.94 19.76 25.94 19.35V16.82C25.94 14.47 24.56 12.44 22.57 11.49C22.05 10.57 21.09 10 19.99 10C18.9 10 17.92 10.59 17.4 11.52C15.45 12.49 14.1 14.5 14.1 16.82V19.35C14.1 19.76 13.91 20.46 13.7 20.82L12.69 22.49C12.29 23.16 12.2 23.9 12.45 24.58C12.69 25.25 13.26 25.77 14 26.02C15.94 26.68 17.98 27 20.02 27C22.06 27 24.1 26.68 26.04 26.03C26.74 25.8 27.28 25.27 27.54 24.58C27.8 23.89 27.73 23.13 27.34 22.49Z" fill="#101010"/>
<path d="M22.83 28.01C22.41 29.17 21.3 30 20 30C19.21 30 18.43 29.68 17.88 29.11C17.56 28.81 17.32 28.41 17.18 28C17.31 28.02 17.44 28.03 17.58 28.05C17.81 28.08 18.05 28.11 18.29 28.13C18.86 28.18 19.44 28.21 20.02 28.21C20.59 28.21 21.16 28.18 21.72 28.13C21.93 28.11 22.14 28.1 22.34 28.07C22.5 28.05 22.66 28.03 22.83 28.01Z" fill="#101010"/>
<circle cx="25" cy="13" r="4" fill="#E74C3C"/>
</g>
<rect x="0.5" y="0.5" width="39" height="39" rx="7.5" stroke="#EDEDED"/>
<defs>
<clipPath id="clip0_502_2540">
<rect width="24" height="24" fill="white" transform="translate(8 8)"/>
</clipPath>
</defs>
</svg>
