<svg width="25" height="24" viewBox="0 0 25 24" fill="none" xmlns="http://www.w3.org/2000/svg">
<path d="M12.9933 10.87C12.8933 10.86 12.7733 10.86 12.6633 10.87C10.2833 10.79 8.39334 8.84 8.39334 6.44C8.39334 3.99 10.3733 2 12.8333 2C15.2833 2 17.2733 3.99 17.2733 6.44C17.2633 8.84 15.3733 10.79 12.9933 10.87Z" stroke="#878787" stroke-width="1.5" stroke-linecap="round" stroke-linejoin="round"/>
<path d="M7.99334 14.56C5.57334 16.18 5.57334 18.82 7.99334 20.43C10.7433 22.27 15.2533 22.27 18.0033 20.43C20.4233 18.81 20.4233 16.17 18.0033 14.56C15.2633 12.73 10.7533 12.73 7.99334 14.56Z" stroke="#878787" stroke-width="1.5" stroke-linecap="round" stroke-linejoin="round"/>
</svg>
