<svg width="40" height="40" viewBox="0 0 40 40" fill="none" xmlns="http://www.w3.org/2000/svg">
<g filter="url(#filter0_b_904_313)">
<path d="M28.1 17.22C26.29 17.22 25.55 15.94 26.45 14.37C26.97 13.46 26.66 12.3 25.75 11.78L24.02 10.79C23.23 10.32 22.21 10.6 21.74 11.39L21.63 11.58C20.73 13.15 19.25 13.15 18.34 11.58L18.23 11.39C17.78 10.6 16.76 10.32 15.97 10.79L14.24 11.78C13.33 12.3 13.02 13.47 13.54 14.38C14.45 15.94 13.71 17.22 11.9 17.22C10.86 17.22 10 18.07 10 19.12V20.88C10 21.92 10.85 22.78 11.9 22.78C13.71 22.78 14.45 24.06 13.54 25.63C13.02 26.54 13.33 27.7 14.24 28.22L15.97 29.21C16.76 29.68 17.78 29.4 18.25 28.61L18.36 28.42C19.26 26.85 20.74 26.85 21.65 28.42L21.76 28.61C22.23 29.4 23.25 29.68 24.04 29.21L25.77 28.22C26.68 27.7 26.99 26.53 26.47 25.63C25.56 24.06 26.3 22.78 28.11 22.78C29.15 22.78 30.01 21.93 30.01 20.88V19.12C30 18.08 29.15 17.22 28.1 17.22ZM20 23.25C18.21 23.25 16.75 21.79 16.75 20C16.75 18.21 18.21 16.75 20 16.75C21.79 16.75 23.25 18.21 23.25 20C23.25 21.79 21.79 23.25 20 23.25Z" fill="#101010"/>
<rect x="0.5" y="0.5" width="39" height="39" rx="7.5" stroke="#EDEDED"/>
</g>
<defs>
<filter id="filter0_b_904_313" x="-4.44444" y="-4.44444" width="48.8889" height="48.8889" filterUnits="userSpaceOnUse" color-interpolation-filters="sRGB">
<feFlood flood-opacity="0" result="BackgroundImageFix"/>
<feGaussianBlur in="BackgroundImageFix" stdDeviation="2.22222"/>
<feComposite in2="SourceAlpha" operator="in" result="effect1_backgroundBlur_904_313"/>
<feBlend mode="normal" in="SourceGraphic" in2="effect1_backgroundBlur_904_313" result="shape"/>
</filter>
</defs>
</svg>
