<svg width="20" height="21" viewBox="0 0 20 21" fill="none" xmlns="http://www.w3.org/2000/svg">
<path d="M2.50833 9.85V13.5917C2.50833 17.3333 4.00833 18.8333 7.75 18.8333H12.2417C15.9833 18.8333 17.4833 17.3333 17.4833 13.5917V9.85" stroke="#878787" stroke-width="1.5" stroke-linecap="round" stroke-linejoin="round"/>
<path d="M10 10.5C11.525 10.5 12.65 9.25833 12.5 7.73333L11.95 2.16667H8.05834L7.50001 7.73333C7.35001 9.25833 8.47501 10.5 10 10.5Z" stroke="#878787" stroke-width="1.5" stroke-linecap="round" stroke-linejoin="round"/>
<path d="M15.2583 10.5C16.9417 10.5 18.175 9.13333 18.0083 7.45833L17.775 5.16667C17.475 3 16.6417 2.16667 14.4583 2.16667H11.9167L12.5 8.00833C12.6417 9.38333 13.8833 10.5 15.2583 10.5Z" stroke="#878787" stroke-width="1.5" stroke-linecap="round" stroke-linejoin="round"/>
<path d="M4.69999 10.5C6.07499 10.5 7.31666 9.38333 7.44999 8.00833L7.63333 6.16667L8.03333 2.16667H5.49166C3.30833 2.16667 2.47499 3 2.17499 5.16667L1.94999 7.45833C1.78333 9.13333 3.01666 10.5 4.69999 10.5Z" stroke="#878787" stroke-width="1.5" stroke-linecap="round" stroke-linejoin="round"/>
<path d="M10 14.6667C8.60834 14.6667 7.91667 15.3583 7.91667 16.75V18.8333H12.0833V16.75C12.0833 15.3583 11.3917 14.6667 10 14.6667Z" stroke="#878787" stroke-width="1.5" stroke-linecap="round" stroke-linejoin="round"/>
</svg>
