<svg width="20" height="21" viewBox="0 0 20 21" fill="none" xmlns="http://www.w3.org/2000/svg">
<path d="M17.7363 7.39649L12.7774 6.67579L10.5606 2.18165C10.5 2.0586 10.4004 1.95899 10.2773 1.89844C9.96876 1.7461 9.59376 1.87305 9.43946 2.18165L7.22266 6.67579L2.26368 7.39649C2.12696 7.41602 2.00196 7.48048 1.90626 7.57813C1.79056 7.69705 1.7268 7.85704 1.729 8.02294C1.7312 8.18884 1.79917 8.34709 1.91797 8.4629L5.50587 11.9609L4.65821 16.9004C4.63833 17.0153 4.65105 17.1335 4.69491 17.2415C4.73878 17.3496 4.81204 17.4432 4.90639 17.5117C5.00074 17.5802 5.1124 17.6209 5.22872 17.6292C5.34503 17.6375 5.46134 17.613 5.56446 17.5586L10 15.2266L14.4356 17.5586C14.5566 17.6231 14.6973 17.6445 14.832 17.6211C15.1719 17.5625 15.4004 17.2402 15.3418 16.9004L14.4941 11.9609L18.082 8.4629C18.1797 8.3672 18.2441 8.24219 18.2637 8.10548C18.3164 7.76368 18.0781 7.44727 17.7363 7.39649Z" fill="#FFD33C"/>
</svg>
