<svg width="20" height="20" viewBox="0 0 20 20" fill="none" xmlns="http://www.w3.org/2000/svg">
<path d="M15.9083 10.4917C15.775 10.4917 15.6417 10.45 15.525 10.3583C12.1667 7.76667 7.825 7.76667 4.46667 10.3583C4.19167 10.5667 3.8 10.5167 3.59167 10.25C3.38333 9.975 3.43333 9.58333 3.7 9.375C7.525 6.41667 12.4667 6.41667 16.2833 9.375C16.5583 9.58333 16.6083 9.975 16.3917 10.25C16.2833 10.4083 16.1 10.4917 15.9083 10.4917Z" fill="#101010"/>
<path d="M18.3333 7.59167C18.2 7.59167 18.0667 7.55 17.95 7.45833C13.1167 3.725 6.875 3.725 2.05 7.45833C1.775 7.66667 1.38333 7.61667 1.175 7.35C0.958332 7.08333 1.00833 6.68333 1.28333 6.475C6.575 2.38333 13.4167 2.38333 18.7167 6.475C18.9917 6.68333 19.0417 7.075 18.825 7.35C18.7083 7.50833 18.5167 7.59167 18.3333 7.59167Z" fill="#101010"/>
<path d="M14.3417 13.5333C14.2083 13.5333 14.075 13.4917 13.9583 13.4C11.5583 11.5417 8.45 11.5417 6.04166 13.4C5.76666 13.6083 5.375 13.5583 5.16666 13.2917C4.95833 13.0167 5.00833 12.625 5.275 12.4167C8.14166 10.2 11.85 10.2 14.7167 12.4167C14.9917 12.625 15.0417 13.0167 14.825 13.2917C14.7083 13.45 14.525 13.5333 14.3417 13.5333Z" fill="#101010"/>
<path d="M12.1667 16.5833C12.0333 16.5833 11.9 16.5417 11.7833 16.45C10.7 15.6083 9.29167 15.6083 8.20834 16.45C7.93334 16.6583 7.54167 16.6083 7.33333 16.3417C7.125 16.0667 7.175 15.675 7.44167 15.4667C8.99167 14.2667 10.9917 14.2667 12.5417 15.4667C12.8167 15.675 12.8667 16.0667 12.65 16.3417C12.5417 16.4917 12.3583 16.5833 12.1667 16.5833Z" fill="#101010"/>
</svg>
